<svg width="43" height="43" viewBox="0 0 43 43" fill="none" xmlns="http://www.w3.org/2000/svg">
<g clip-path="url(#clip0_5902_69972)">
<path d="M43.5 4.54167V39.9583C43.5 41.9653 42.349 43.5 40.8438 43.5H38.1875V11.3582L22.25 26.6181L6.3125 11.3582V43.5H3.65625C2.14927 43.5 1 41.9653 1 39.9583V4.54167C1 3.53819 1.28688 2.65278 1.76323 2.02C2.23958 1.37778 2.90542 1 3.65625 1H4.54167L22.25 18.1181L39.9583 1H40.8438C41.5964 1 42.2604 1.3825 42.7368 2.02C43.2149 2.65278 43.5 3.53819 43.5 4.54167Z" fill="black"/>
</g>
<defs>
<clipPath id="clip0_5902_69972">
<rect width="42.5" height="42.5" fill="white" transform="translate(0.5 0.5)"/>
</clipPath>
</defs>
</svg>
