<svg width="43" height="43" viewBox="0 0 43 43" fill="none" xmlns="http://www.w3.org/2000/svg">
<g clip-path="url(#clip0_5902_69966)">
<path d="M31.869 0.686035L32.2035 0.691349C38.0911 0.873288 42.8087 5.70053 42.814 11.6312V31.8691L42.8087 32.2036C42.6268 38.0913 37.7995 42.8088 31.8689 42.8142H11.6309L11.2964 42.8088C5.40881 42.6269 0.691297 37.7997 0.685913 31.869V11.631L0.691227 11.2966C0.873166 5.40894 5.70041 0.691419 11.6311 0.686035H31.869ZM31.869 3.34987H11.6309L11.3273 3.35534C6.89441 3.51508 3.34975 7.15912 3.34975 11.631V31.8691L3.35521 32.1727C3.51496 36.6057 7.159 40.1503 11.6309 40.1503H31.869L32.1726 40.1449C36.6055 39.9851 40.1502 36.3411 40.1502 31.8691V11.631L40.1447 11.3275C39.985 6.89453 36.341 3.34987 31.869 3.34987ZM21.7498 9.79318L22.1022 9.79859C28.5404 9.99068 33.701 15.2669 33.7069 21.7503C33.7069 28.3537 28.3536 33.707 21.75 33.707C15.1463 33.707 9.79306 28.3537 9.79306 21.7501C9.79306 15.2644 14.9569 9.98477 21.3974 9.79827L21.7498 9.79318ZM21.75 12.457C16.6175 12.457 12.4569 16.6177 12.4569 21.7501C12.4569 26.8825 16.6175 31.0432 21.75 31.0432C26.8824 31.0432 31.0431 26.8825 31.0431 21.7501C31.0431 16.6177 26.8824 12.457 21.75 12.457ZM33.3869 7.26342C34.4019 7.26342 35.2248 8.08626 35.2248 9.10129C35.2248 10.1163 34.4019 10.9392 33.3869 10.9392C32.3719 10.9392 31.549 10.1163 31.549 9.10129C31.549 8.08626 32.3719 7.26342 33.3869 7.26342Z" fill="black"/>
</g>
<defs>
<clipPath id="clip0_5902_69966">
<rect width="42.5" height="42.5" fill="white" transform="translate(0.5 0.5)"/>
</clipPath>
</defs>
</svg>
