<svg width="43" height="43" viewBox="0 0 43 43" fill="none" xmlns="http://www.w3.org/2000/svg">
<g clip-path="url(#clip0_5902_69964)">
<path d="M41.6496 1.65768C41.3128 1.33505 40.9027 1.1208 40.4638 1.03816C40.0249 0.95553 39.574 1.00767 39.1599 1.18892L1.55113 17.5667C1.0595 17.7808 0.64362 18.1656 0.365733 18.6635C0.0878451 19.1614 -0.0371091 19.7457 0.00956848 20.329C0.056246 20.9122 0.272045 21.463 0.624673 21.8989C0.977302 22.3348 1.4478 22.6325 1.96576 22.7473L12.1739 25.0105V38.9777C12.1688 39.515 12.3101 40.0415 12.5795 40.4884C12.8488 40.9352 13.2336 41.2814 13.6834 41.4818C13.9848 41.6217 14.3081 41.6942 14.6347 41.6951C14.954 41.694 15.2699 41.6226 15.564 41.4851C15.8582 41.3476 16.1248 41.1468 16.3484 40.8942L22.1756 34.4347L30.7737 42.8219C31.2168 43.2581 31.7886 43.4993 32.3812 43.5C32.6388 43.4997 32.8947 43.4546 33.1398 43.3665C33.5439 43.2245 33.9074 42.9674 34.1939 42.6211C34.4804 42.2747 34.68 41.8511 34.7727 41.3925L42.4376 4.31734C42.5376 3.83652 42.5171 3.33451 42.3782 2.8657C42.2393 2.39688 41.9874 1.97912 41.6496 1.65768V1.65768ZM1.63342 20.1692C1.61315 19.974 1.65285 19.777 1.74611 19.6099C1.83936 19.4428 1.98073 19.3155 2.14735 19.2485L36.6216 4.23567L12.7999 23.3065L2.28545 20.9755C2.11079 20.942 1.95142 20.8442 1.83311 20.6979C1.71479 20.5516 1.64444 20.3653 1.63342 20.1692V20.1692ZM15.1955 39.6165C15.0815 39.7429 14.9363 39.8289 14.7782 39.8638C14.6201 39.8986 14.4562 39.8808 14.3073 39.8124C14.1583 39.744 14.031 39.6282 13.9415 39.4796C13.8519 39.331 13.8041 39.1564 13.8041 38.9777V26.2685L20.9494 33.2386L15.1955 39.6165ZM40.8485 3.91366L33.1837 40.9888C33.1521 41.1413 33.0853 41.2822 32.9899 41.3976C32.8945 41.5129 32.7737 41.5988 32.6393 41.6468C32.5049 41.6949 32.3616 41.7034 32.2233 41.6716C32.0851 41.6397 31.9566 41.5686 31.8506 41.4653L14.2942 24.3395L40.7168 3.18649C40.7863 3.28912 40.8342 3.4077 40.857 3.53352C40.8798 3.65935 40.8769 3.78924 40.8485 3.91366V3.91366Z" fill="black"/>
</g>
<defs>
<clipPath id="clip0_5902_69964">
<rect width="42.5" height="42.5" fill="white" transform="translate(0 0.5)"/>
</clipPath>
</defs>
</svg>
