<svg width="43" height="43" viewBox="0 0 43 43" fill="none" xmlns="http://www.w3.org/2000/svg">
<g clip-path="url(#clip0_5902_69970)">
<path d="M37.8294 29.7916C37.8294 29.7916 41.2656 35.7277 42.1156 38.4745C42.1321 38.5141 42.145 38.558 42.1538 38.6046C42.5002 39.6193 42.5852 40.4148 42.4152 41.0021C42.1283 41.9722 41.1572 42.4591 40.8278 42.5H34.7546C34.3317 42.5 33.4519 42.3067 32.3809 41.0132C31.5628 40.0133 30.7489 38.3667 29.9606 36.7573C28.7833 34.3672 27.7654 32.2932 26.7348 32.2932C26.6046 32.2927 26.4754 32.3304 26.3523 32.4047C25.5724 32.8358 24.5822 34.7798 24.5822 39.9576C24.5822 41.5782 23.8512 42.5 23.3391 42.5H20.5574C19.6097 42.5 14.6754 41.9202 10.3001 33.8506C4.93869 23.9708 0.123441 4.15187 0.0766914 3.97717C-0.222934 2.69481 0.406066 1.99602 1.08607 1.99602H7.21882C8.04119 1.99602 8.30894 2.86579 8.49594 3.64636C8.71269 4.54215 9.51594 8.12533 10.8334 12.1508C12.9669 18.7001 14.2781 21.3652 15.3257 21.3652C15.5225 21.3662 15.716 21.2765 15.8867 21.105C17.2552 19.7892 17.0002 11.2402 16.9364 9.47831C16.9364 9.13635 16.9343 5.66097 16.2331 3.98089C15.7316 2.77659 14.8773 2.30825 14.3609 2.13727C14.4991 1.78787 14.7923 1.25262 15.1684 0.93668C16.1056 0.118943 17.7992 0 19.4801 0H20.4129C22.2362 0.0446038 22.7079 0.249038 23.3709 0.542679C24.7054 1.10023 24.7309 2.61304 24.6141 7.76478C24.5801 9.23671 24.5439 10.8945 24.5439 12.8459C24.5439 13.2622 24.5333 13.7268 24.5333 14.1989C24.4929 16.8417 24.4398 19.819 25.5066 21.0419C25.6449 21.1926 25.8047 21.2724 25.9677 21.2723C26.3374 21.2723 27.4446 21.2723 30.4472 12.2586C31.7647 8.27772 32.7847 3.58317 32.8548 3.23006C32.9143 3.03306 33.0928 2.47923 33.3096 2.25621C33.4638 2.11272 33.6365 2.04103 33.8111 2.04806H41.0254C41.8117 2.04806 42.3451 2.25621 42.4492 2.77659C42.6234 3.62034 42.4152 6.19621 39.1214 13.987C38.5668 15.2842 38.0802 16.4068 37.6531 17.3881C34.6674 24.2422 34.6674 24.5879 37.8294 29.7916Z" fill="black"/>
</g>
<defs>
<clipPath id="clip0_5902_69970">
<rect width="42.5" height="42.5" fill="white" transform="translate(0 0.5)"/>
</clipPath>
</defs>
</svg>
