<svg id="SvgjsSvg1193" width="100%" height="100%" xmlns="http://www.w3.org/2000/svg" version="1.1" xlink="http://www.w3.org/1999/xlink" xmlns:svgjs="http://svgjs.com/svgjs" preserveAspectRatio="xMidYMid meet" viewBox="0 0 150 104" overflow="visible"><defs id="SvgjsDefs1194"><linearGradient id="SvgjsLinearGradientowDaQToQSJ" gradientUnits="userSpaceOnUse" x1="-2.6505005955695746" y1="96.65049934387204" x2="90.65049809217453" y2="3.3495006561279217"><stop id="SvgjsStop1197" stop-color="#c58b16" offset="0.05"></stop><stop id="SvgjsStop1198" stop-color="#523a09" offset="0.95"></stop></linearGradient></defs><g id="SvgjsG1195" transform="scale(0.615395132733404)" opacity="1"><g id="SvgjsG1199" class="hwW9JqVMV" transform="translate(47.68079840521982, 0) scale(1.6927091753077295)" light-content="false" non-strokable="false" fill="url(#SvgjsLinearGradientowDaQToQSJ)"><path d="M44 0l43.301 25v50L44 100 .699 75V25z"></path></g><g id="SvgjsG1200" class="J2QwfnGOpv" transform="translate(79.08990302233298, 41.72704755268555) scale(0.9598123437703748)" light-content="true" non-strokable="false" fill="#ffffff"><path d="M29.497 87.031c-.001 0-.001 0 0 0-13.44 0-22.567-11.123-22.658-11.236-4.254-5.247-8.815-17.42-5.089-26.88C9.086 30.282 27.471 16.178 56.394 6.997c10.062-3.194 16.8-4.618 21.848-4.618 4.801 0 7.972 1.314 9.692 4.018 2.902 4.559 1.426 12.953-4.513 25.662-.597 1.276-1.244 2.732-1.954 4.328-6.389 14.367-18.281 41.11-44.12 49.393-2.595.83-5.236 1.251-7.85 1.251zM78.241 3.378c-6.332 0-14.84 2.443-21.545 4.571C28.075 17.036 9.901 30.942 2.68 49.282-.9 58.371 3.509 70.1 7.616 75.167c.089.109 8.928 10.864 21.88 10.864h.001c2.511 0 5.049-.405 7.545-1.205C62.454 76.68 74.228 50.204 80.554 35.98c.713-1.603 1.362-3.064 1.961-4.345 5.702-12.203 7.241-20.513 4.575-24.702-1.523-2.392-4.417-3.555-8.849-3.555z"></path><path d="M4.522 61.771c-.713-6.688 7.697-15.684 12.14-19.635 4.685-4.166 6.787-9.668 10.986-14.137 8.568-9.113 24.265-10.596 34.028-18.492.472-.382-.116-2.242-.629-1.828-11.02 8.913-29.547 10.07-37.514 22.592-1.948 3.059-3.53 5.927-6.081 8.642-2.051 2.188-4.902 3.711-6.555 6.245-2.725 4.178-7.888 10.863-7.311 16.272.094.877 1.079 1.687.936.341zm7.58 12.27c2.278-8.762 9.407-16.879 16.58-22.104 2.873-2.092 7.643-4.334 9.369-7.605 1.976-3.74 4.758-6.525 7.898-9.317 5.837-5.197 14.524-6.219 20.443-11.021 3.442-2.792 6.34-5.69 10.046-8.239 2.975-2.046 6.047-4.394 8.521-7.037.258-.275-.131-1.359-.376-1.098-2.504 2.673-5.584 4.877-8.522 7.038-3.918 2.885-7.732 6.983-11.952 9.275-6.625 3.598-14.041 5.984-19.751 11.064-2.347 2.089-4.937 4.499-6.263 7.4-2.179 4.774-8.882 7.53-12.75 10.768-5.91 4.942-11.812 12.544-13.783 20.127-.084.32.376 1.374.54.749z"></path><path d="M22.24 57.361c3.83-2.671 7.302-5.839 11.08-8.595 2.33-1.698 4.993-2.878 6.503-5.437 1.519-2.571 2.725-5.782 5.043-7.728 4.268-3.58 10.065-5.8 15.071-8.162 4.772-2.252 7.471-4.744 11.538-7.967.169-.134-.041-.806-.227-.657-4.342 3.441-7.908 6.248-13.007 8.653-4.655 2.196-9.396 4.482-13.602 7.475-4.163 2.962-4.855 8.631-9.404 11.669-4.628 3.095-8.672 6.915-13.222 10.092-.174.119.025.799.227.657zm63.969-44.942c-2.367 8.754-9.641 16.892-16.885 22.064-2.911 2.077-7.727 4.285-9.495 7.556-2.022 3.743-4.848 6.518-8.028 9.292-5.923 5.17-14.668 6.118-20.664 10.886-3.488 2.777-6.428 5.663-10.181 8.188-3.01 2.028-6.121 4.36-8.636 6.996-.26.271.128 1.357.377 1.096 2.541-2.665 5.664-4.852 8.636-6.992 3.971-2.864 7.844-6.947 12.109-9.211 6.694-3.555 14.173-5.885 19.962-10.936 2.381-2.081 5.008-4.479 6.368-7.379 2.236-4.78 9.003-7.489 12.923-10.706 5.987-4.912 11.992-12.481 14.052-20.106.088-.322-.369-1.375-.538-.748z"></path><path d="M75.854 29.089c-3.876 2.651-7.396 5.803-11.223 8.535-2.359 1.684-5.046 2.847-6.59 5.405-1.551 2.57-2.794 5.788-5.146 7.723-4.299 3.535-10.203 5.747-15.231 8.062-4.82 2.218-7.556 4.698-11.677 7.898-.172.132.039.807.227.657 4.4-3.419 8.012-6.207 13.162-8.576 4.706-2.164 9.486-4.413 13.747-7.386 4.213-2.937 4.967-8.63 9.567-11.642 4.684-3.068 8.786-6.869 13.392-10.02.173-.119-.022-.796-.228-.656zm4.709-12.5c-4.415 2.954-8.626 6.225-12.734 9.586-3.974 3.251-6.226 7.327-9.834 10.901-4.264 4.225-9.668 6.641-15 9.254-2.717 1.33-5.502 2.503-8.172 3.921-2.623 1.393-4.451 4.419-6.961 6.113-.292.195.033 1.328.378 1.095 3.234-2.178 5.324-5.238 8.824-7.097 2.576-1.367 5.345-2.454 7.967-3.739 4.891-2.397 9.345-4.728 13.342-8.45 3.284-3.056 5.24-6.893 8.571-9.833 4.371-3.859 9.151-7.412 13.998-10.653.291-.197-.033-1.328-.379-1.098z"></path><path d="M79.671 17.666c-6.893 4.619-14.042 8.957-18.487 16.016-4.395 6.979-10.426 9.661-17.877 12.462-5.612 2.109-8.841 5.548-13.502 9.147-.172.131.035.803.226.657 5.132-3.964 9.161-7.5 15.367-9.832 4.721-1.778 9.307-3.711 12.873-7.374 1.784-1.836 3.151-4.413 4.498-6.55 2.197-3.488 4.18-4.711 7.548-6.955 3.28-2.188 6.309-4.721 9.582-6.914.173-.118-.023-.797-.228-.657zM13.83 60.494c.822-3.812 3.212-6.417 5.977-8.953 2.321-2.128 4.75-4.427 7.407-6.143.316-.203-.471-1.908-.415-1.945-2.868 1.849-5.45 4.346-7.955 6.643-2.602 2.389-4.708 4.991-5.472 8.533-.119.552.516 1.595.458 1.865z"></path><path fill="none" d="M45.042 35.998c-7.744 3.974-.182-.767 2.405-3.946 3.789-4.656 9.716-9.041 11.932-10.348"></path><path d="M7.35 69.142c.194-2.784 1.961-3.724 4.408-4.216 2.064-.414 3.568-1.166 3.787-3.409.049-.527-.66-1.689-.761-.661-.285 2.967-4.15 2.1-5.99 3.258-1.478.929-2.084 2.689-2.202 4.369-.039.523.685 1.694.758.659zm-.944-7.38c3.047-18.375 26.359-18.548 36.473-31.266 4.455-5.6 7.542-7.507 14.218-10.437 6.045-2.652 13.909-6.726 18.641-11.342.34-.331-.553-1.812-.416-1.947-4.323 4.218-11.194 7.687-16.601 10.391-7.291 3.647-11.278 5.051-16.258 11.389C32.392 41.365 9.002 41.478 5.949 59.897c-.094.562.506 1.574.457 1.865z"></path><path d="M31.229 35.927c-.568-3.543 4.178-6.947 6.542-8.843a88.35 88.35 0 0 1 7.751-5.562c.315-.2-.47-1.911-.416-1.946-3.628 2.312-7.139 4.904-10.364 7.752-2.134 1.887-4.398 4.602-3.909 7.656.051.327.587 2.156.396.943zM28.144 84.7c3.821-2.337 6.209-6.284 10.613-7.745 4.917-1.632 9.11-2.096 13.265-5.463 5.961-4.833 11.78-9.392 16.933-15.139.252-.278-.308-1.597-.412-1.482-5.396 6.018-11.602 10.805-17.838 15.862-3.5 2.837-7.97 3.811-12.28 4.664-4.392.873-6.984 5.527-10.612 7.747-.333.205.244 1.61.331 1.556zm55.057-61.584c-1.95 10.204-11.567 16.137-19.318 21.812-4.154 3.044-6.072 7.402-9.796 10.884-3.135 2.93-6.235 6.472-8.521 10.117-.178.289.208 1.38.477.954 2.602-4.155 6.224-7.926 9.789-11.252 1.519-1.419 2.552-2.899 3.576-4.66 1.836-3.157 4.798-4.885 7.634-7.004 7.155-5.354 14.901-10.7 16.701-20.104.061-.321-.422-1.375-.542-.747z"></path><path d="M84.853 20.355c-1.801 2.481-2.446 5.624-3.396 8.497-1.16 3.513-4.82 5.938-7.564 8.181-3.165 2.583-6.478 5.001-9.803 7.372-3.366 2.402-4.629 5.186-7.286 8.249-.148.171.091.815.227.659 2.259-2.606 3.682-5.531 6.456-7.667 3.063-2.352 6.26-4.53 9.313-6.907 2.847-2.215 5.855-4.52 8.082-7.388 2.245-2.89 1.985-7.289 4.198-10.339.131-.183-.114-.813-.227-.657zm-7.296 18.88c-2.629 6.933-9.049 12.44-15.373 15.917-4.749 2.61-7.458 6.709-11.71 9.927-4.708 3.559-11.203 4.613-16.471 7.111-2.037.967-4.512 3.345-6.437 4.448-2.627 1.507-5.311 3.068-7.624 5.043-.279.237.082 1.349.377 1.098 4.396-3.75 10.846-7.957 16.026-10.414 4.75-2.253 10.095-3.195 14.506-6.192 1.723-1.168 4.053-2.792 5.186-4.575 2.251-3.546 6.269-5.095 9.751-7.209 5.055-3.069 10.116-8.594 12.247-14.2.116-.315-.316-1.383-.478-.954z"></path><path d="M69.024 50.76c-2.593 1.484-5.014 3.253-7.56 4.822-5.897 3.632-3.104 1.188-5.786 3.615-1.722 1.553-2.451 3.986-4.224 5.522-3.086 2.671-8.477 3.904-12.253 5.253-3.547 1.271-5.585 2.789-8.656 4.885-.176.12.023.798.227.659 6.271-4.28 13.527-5.577 19.919-9.528 3.679-2.274 4.867-6.203 8.88-8.522 3.301-1.908 6.379-4.155 9.68-6.049.179-.103-.006-.786-.227-.657z"></path></g><g id="SvgjsG1201" class="text" transform="translate(122.12999725341797, 130) scale(1)" light-content="false" fill="#4a4a4a"></g></g></svg>