<svg width="800" height="800" viewBox="0 0 800 800" fill="none" xmlns="http://www.w3.org/2000/svg">
<path d="M381.525 203.2C381.525 214.175 372.3 223.6 361.275 223.45C350.15 223.3 339.1 223.35 327.975 223.35C320.575 223.35 313.2 223.35 305.85 223.3C287.35 223.15 268.95 223.8 250.475 224.2C238.775 224.45 229 214.275 229 202.775C229 191.025 238.775 181.45 250.475 181.35C252.25 181.35 254.025 181.325 255.8 181.325C273.125 181.325 290.45 181.95 307.775 182.475C325.575 182.975 343.45 183.075 361.25 183.025C372.3 182.925 381.525 192.25 381.525 203.2ZM636.7 555.9C636.675 555.95 636.625 555.975 636.575 556.025C636.425 556.2 636.3 556.4 636.15 556.575C636.35 556.35 636.525 556.125 636.7 555.9ZM709.4 455.875C696.65 473.625 684 491.5 671.15 509.15C665.65 516.8 659.85 524.225 654.375 531.925C648.6 540.075 643 548.275 636.575 556.025C633.775 559.4 630.9 562 626.3 563.275C623.675 564 620.95 564.1 618.275 563.7C616.875 563.975 615.575 564.55 614.1 564.55C596.5 564.35 578.975 564.5 561.375 563.35C551.5 562.75 541.675 562.25 531.85 561.8C521.925 561.35 512 561.55 502.075 561.4C482.425 561.125 462.725 560.85 443 560.55C443.15 561.55 443.6 562.45 443.6 563.475C443.45 580.8 442.8 598.1 443.25 615.425C443.65 631.35 443.95 647.275 444.1 663.25C444.3 678.925 444.25 694.65 444.6 710.375C444.75 717.7 444.8 725 445 732.275C445.1 738.675 445.65 745.125 444.85 751.525C444.85 755.2 443.9 758.625 442.125 761.8C440.3 764.825 437.85 767.25 434.825 769.05C430.65 771.475 425.75 772.075 421.05 771.225C419.5 771.625 418.025 772.2 416.375 772.2C398.95 772.25 381.45 773.925 364.075 774.975C358.225 775.325 352.95 772.65 349.125 768.525C342.35 765.3 337.475 758.475 337.5 750.6C337.85 687.6 337.15 624.525 339.075 561.575C339.125 559.7 339.725 557.975 340.25 556.25C330.625 556.075 320.975 555.875 311.35 555.425C300.05 554.825 290.6 546.4 290.6 534.65C290.6 530.05 292.525 525.65 295.375 521.975C294.9 520.25 294.3 518.575 294.325 516.7C294.375 504.3 293.825 491.95 293.675 479.55C293.575 468.675 293.675 457.825 293.575 447C293.325 421.5 291.5 396.15 292.725 370.65C293.175 361.325 299 353.5 307.475 350.65C311.15 345.5 316.925 341.95 323.675 341.7C330.4 341.5 337.175 341.35 343.925 341.175C343.375 332.275 343.125 323.375 342.975 314.475C342.975 314.075 343.175 313.75 343.2 313.35C334.675 313.325 326.15 313.175 317.6 313.2C296.625 313.25 275.625 313.25 254.6 312.85C233.55 312.35 212.425 313.075 191.375 311.825C185.2 312.75 178.725 311.325 174.35 306.55C160.55 291.375 148.55 274.6 134.8 259.375C131.275 255.5 127.6 251.825 124.175 247.925C120 243.15 116.225 238 112.375 232.975C104.925 223.35 97.6251 213.675 90.4751 203.85C87.4501 199.725 87.1751 193.225 88.4501 188.525C89.8501 183.575 93.1751 179.25 97.5751 176.675C98.1251 176.35 98.7751 176.45 99.3501 176.2C100.175 174.675 100.925 173.1 102.15 171.775C102.75 171.15 103.3 170.5 103.85 169.85C107.775 164.65 111.6 159.4 115.625 154.2C114.575 155.55 113.575 156.825 112.575 158.125C120.8 147.35 128.35 136.05 136.1 124.875C145.675 111.075 155.9 97.825 166.175 84.6C169.2 80.675 175.55 78.8 180.225 78.8C181.85 78.8 183.35 79.35 184.875 79.725C188.1 77.675 191.675 76.15 195.725 76.15C206.25 76.15 216.7 76.25 227.225 76.4C262.725 76.975 298.175 78.275 333.65 78.6C333.725 75.675 333.775 72.75 333.875 69.825C333.925 67.3 334.025 64.775 334.125 62.225C334.225 58.55 333.975 54.25 335.275 50.875C337.65 44.625 341.275 37.925 347.825 35.05C352.15 33.175 355.875 31.825 360.425 31.025C367.475 29.85 374.55 28.975 381.6 28.05C389.35 27.025 397.1 26.05 404.875 25.275C406.625 25.1 408.375 25 410.125 25C415.025 25 419.85 25.725 424.65 27.1C428.275 28.1 431.95 28.525 435.175 30.675C437.2 31.975 439.2 33.25 440.675 35.15C443.2 37.625 444.9 40.6 445.875 44.025C447.6 48.25 447.75 53.2 448.2 57.775C448.925 65.175 449.75 72.55 450.7 79.9C450.725 80.1 450.75 80.275 450.775 80.475C451.95 80.475 453.125 80.55 454.3 80.5C458.325 80.4 462.275 79.8 466.25 79.75C474.95 79.55 481.725 85.35 484.875 92.775C486.85 95.875 488.275 99.325 488.35 103.2C488.65 121.7 488.3 140.25 488.05 158.775C487.8 175.1 486.6 191.375 486.175 207.7C485.825 223.625 485.825 239.65 486.225 255.625C486.375 263.525 486.575 271.45 486.925 279.35C487.125 283.475 487.675 287.725 487.475 291.85C486.975 302.525 478.95 311.4 467.925 311.4C466.425 311.4 465 310.875 463.55 310.525C460.45 312.2 457.1 313.35 453.425 313.2C451 313.1 448.575 313.35 446.125 313.4C445.725 321.775 445.275 330.125 444.875 338.5C444.85 339.075 444.575 339.575 444.5 340.15C453.225 340.2 461.95 340.325 470.675 340.3C491.425 340.3 512.2 339.65 532.975 340.35C552.725 341 572.525 341.925 592.25 340.65C599.85 340.175 606.325 345.05 609.9 351.425C619.525 357.8 628.675 364.725 637.8 371.825C645.25 377.625 652 384.025 658.775 390.525C665.525 396.925 672.475 403.075 679.55 409.125C686.175 414.825 693 420.325 699.375 426.325C700.225 426.675 701.1 426.925 701.875 427.375C706.55 430.05 710 434.625 711.45 439.775C712.875 444.75 712.525 451.55 709.4 455.875ZM403.7 339.925C404.025 339.925 404.35 339.925 404.65 339.925C404.625 339.425 404.35 339 404.375 338.5C404.475 330.25 404.65 322.025 404.8 313.775C398.025 313.6 391.25 313.625 384.525 313.6C384.55 313.9 384.7 314.175 384.7 314.475C384.75 320.775 384.75 327.075 384.75 333.375C384.725 335.7 384.925 338 384.925 340.3C391.175 340.175 397.425 339.925 403.7 339.925ZM376.375 69.425C376.425 72.7 376.475 75.975 376.55 79.25C386.6 79.45 396.65 79.55 406.7 79.725C407.8 79.75 408.925 79.775 410.025 79.8C409.725 74.8 409.625 69.8 409.1 64.825C406.075 64.775 403.1 64.975 400.075 65.3C392.2 66.425 384.225 67.7 376.375 69.425ZM335.5 272.425C355.4 272.475 375.3 272.375 395.175 272.375C411.475 272.375 427.775 271.575 444 269.675C445.65 269.45 447.275 269.3 448.925 269.1C448.95 264.375 448.975 259.65 448.95 254.95C448.9 238.775 448.85 222.55 448.95 206.375C449.05 190.25 450.25 174.175 450 158.05C449.825 145.525 449.35 132.975 448.95 120.425C447.275 120.4 445.625 120.225 443.95 120.2C404.3 119.85 364.725 119.4 325.075 119.1C304.725 118.95 284.5 117.075 264.2 116.975C241.4 116.825 218.525 117.575 195.7 117.775C194.025 117.8 192.5 117.2 190.925 116.825C185.525 123.625 180.1 130.4 174.75 137.2C160.4 156.225 147.225 176.15 133.05 195.35C138.65 203.325 144.15 211.325 150.025 219.1C154.2 224.025 158.8 228.55 163.175 233.375C167.625 238.275 172 243.35 176.275 248.45C182.475 255.875 188.875 263.2 195.525 270.25C200.1 270.575 204.7 270.925 209.3 271.175C230 272.325 250.725 272.95 271.425 272.8C292.8 272.675 314.175 272.375 335.5 272.425ZM393.5 731.8C397.525 731.7 401.6 731.575 405.675 731.55C405.7 730.225 405.8 728.925 405.825 727.6C405.925 720.5 406.075 713.4 406.175 706.275C406.425 691.25 406.525 676.15 406.375 661.075C406.225 645.7 405.575 630.325 404.75 614.925C403.85 597.75 403.5 580.65 403.4 563.475C403.375 561.8 403.95 560.275 404.35 558.7C395.75 558.075 387.15 557.425 378.525 556.925C378.875 558.45 379.45 559.925 379.4 561.55C378.15 594.4 376.425 627.1 376.575 659.975C376.65 684.125 376.7 708.325 377.125 732.5C382.575 732.3 388.025 731.975 393.5 731.8ZM664.625 447.95C658.025 441.925 651.425 435.95 644.75 430.025C635.925 422.2 627.475 413.875 618.35 406.35C608.55 398.975 598.425 391.975 588.075 385.375C586.55 384.4 585.45 383.05 584.25 381.8C579.775 381.725 575.3 381.675 570.8 381.575C550.95 381.175 531.15 379.65 511.325 379.45C490.625 379.2 469.95 379.1 449.25 379.05C428.9 378.95 408.475 378.4 388.075 379.05C370.375 379.65 352.675 380.625 335 381.45C333.95 403.75 333.775 426.025 333.9 448.35C334.05 470.575 333.925 492.8 334.7 515.05C347.075 515.7 359.45 516.425 371.85 516.9C392.875 517.7 413.875 519.775 434.9 520.525C455.35 521.225 475.925 521.625 496.425 521.325C516.725 521.025 537.05 521.275 557.35 521.975C576.25 522.625 595.15 522.075 614.05 520.825C614.075 520.825 614.125 520.85 614.15 520.85C616.35 517.975 618.375 515.025 620.525 512.125C626.075 504.525 631.75 497.05 637.05 489.25C646.45 475.6 655.425 461.7 664.625 447.95ZM539.25 422.325C521.8 422.975 504.325 422.725 486.85 422.525C477.55 422.4 468.25 422.25 458.95 422.25C447.1 422.25 435.275 422.475 423.45 423.15C412.425 423.8 403.2 431.875 403.2 443.45C403.2 453.875 412.425 464.525 423.45 463.7C443.9 462.15 464.325 461.025 484.825 460.675C502.925 460.375 521.1 460.475 539.25 460.675C549.675 460.775 558.4 451.85 558.4 441.475C558.4 431.325 549.675 421.95 539.25 422.325ZM379.625 28.275C380.275 28.2 380.925 28.125 381.575 28.05C381.675 28.025 381.775 28.025 381.875 28C381.125 28.075 380.375 28.175 379.625 28.275Z" fill="white"/>
</svg>
