<svg width="800" height="1000" viewBox="0 0 800 1000" fill="none" xmlns="http://www.w3.org/2000/svg">
<path d="M216.658 342.116C232.129 354.477 251.548 361.29 271.342 361.29H296.774V374.194C296.774 395.535 314.142 412.903 335.484 412.903H503.226C524.568 412.903 541.935 395.535 541.935 374.194V309.677H554.839C576.181 309.677 593.548 292.31 593.548 270.968C593.548 261.019 589.665 252.026 583.484 245.161C589.677 238.297 593.548 229.303 593.548 219.355C593.548 209.406 589.665 200.413 583.484 193.548C589.677 186.684 593.548 177.69 593.548 167.742C593.548 157.794 589.665 148.8 583.484 141.935C589.677 135.071 593.548 126.077 593.548 116.129C593.548 94.7871 576.181 77.4194 554.839 77.4194H541.935V38.7097C541.935 17.3677 524.568 0 503.226 0H335.484C314.142 0 296.774 17.3677 296.774 38.7097V64.5161H275.69C262.168 64.5161 248.632 67.7032 236.529 73.7548L177.6 103.226H0V129.032H183.69L248.065 96.8387C256.606 92.5806 266.155 90.3226 275.69 90.3226H296.774V281.897L355.781 291.742C366.452 293.51 374.194 302.645 374.194 313.458C374.194 325.6 364.31 335.484 352.168 335.484H271.342C257.381 335.484 243.677 330.684 232.774 321.948L185.174 283.871H0V309.677H176.116L216.658 342.116ZM541.935 103.226H554.839C561.961 103.226 567.742 109.006 567.742 116.129C567.742 123.252 561.961 129.032 554.839 129.032H541.935V103.226ZM541.935 154.839H554.839C561.961 154.839 567.742 160.619 567.742 167.742C567.742 174.865 561.961 180.645 554.839 180.645H541.935V154.839ZM541.935 206.452H554.839C561.961 206.452 567.742 212.232 567.742 219.355C567.742 226.477 561.961 232.258 554.839 232.258H541.935V206.452ZM541.935 258.065H554.839C561.961 258.065 567.742 263.845 567.742 270.968C567.742 278.09 561.961 283.871 554.839 283.871H541.935V258.065ZM490.323 25.8065H503.226C510.348 25.8065 516.129 31.5871 516.129 38.7097V374.194C516.129 381.316 510.348 387.097 503.226 387.097H490.323V25.8065ZM322.581 361.29H352.168C378.542 361.29 400 339.832 400 313.458C400 289.987 383.187 270.155 360.026 266.284L322.581 260.039V38.7097C322.581 31.5871 328.361 25.8065 335.484 25.8065H464.516V387.097H335.484C328.361 387.097 322.581 381.316 322.581 374.194V361.29Z" fill="white"/>
<path d="M438.71 129.032C438.71 122.464 437.368 115.884 434.8 109.677C437.368 103.471 438.71 96.8901 438.71 90.3224C438.71 61.8579 415.561 38.7095 387.097 38.7095C358.632 38.7095 335.484 61.8579 335.484 90.3224C335.484 96.8901 336.813 103.471 339.394 109.677C336.813 115.884 335.484 122.464 335.484 129.032C335.484 157.497 358.632 180.645 387.097 180.645C415.561 180.645 438.71 157.497 438.71 129.032ZM409.29 116.18C411.69 120.284 412.903 124.606 412.903 129.032C412.903 143.251 401.316 154.839 387.097 154.839C372.865 154.839 361.29 143.251 361.29 129.032C361.29 124.606 362.503 120.284 364.903 116.18L368.684 109.677L364.903 103.174C362.503 99.0708 361.29 94.7482 361.29 90.3224C361.29 76.103 372.865 64.5159 387.097 64.5159C401.316 64.5159 412.903 76.103 412.903 90.3224C412.903 94.7482 411.69 99.0708 409.29 103.174L405.51 109.677L409.29 116.18Z" fill="white"/>
<path d="M448.697 503.226H528.645C542.606 503.226 556.31 508.026 567.213 516.761L614.826 554.839H800V529.032H623.884L583.342 496.593C567.871 484.232 548.452 477.419 528.658 477.419H516.129V438.709H374.194V451.613C374.194 480.077 351.045 503.226 322.581 503.226C294.116 503.226 270.968 480.077 270.968 451.613V438.709H129.032V567.742H180.645V800H464.516V774.193H524.31C537.832 774.193 551.368 771.006 563.471 764.955L622.4 735.484H800V709.677H616.31L551.936 741.871C543.394 746.129 533.845 748.387 524.31 748.387H464.516V579.522L526.232 593.239L531.832 568.038L443.729 548.464C433.174 546.129 425.806 536.942 425.806 526.116C425.806 513.497 436.077 503.226 448.697 503.226ZM438.71 774.193H206.452V645.161H438.71V774.193ZM438.71 593.548V619.355H206.452V593.548H438.71ZM423.432 567.742H206.452V541.935H154.839V464.516H246.232C252.387 501.084 284.284 529.032 322.581 529.032C360.877 529.032 392.761 501.084 398.929 464.516H490.323V477.419H448.697C421.845 477.419 400 499.264 400 526.116C400 543.664 409.148 559.148 423.432 567.742Z" fill="white"/>
</svg>
