<svg width="800" height="800" viewBox="0 0 800 800" fill="none" xmlns="http://www.w3.org/2000/svg">
<path d="M157.69 156.093C194.533 156.093 224.4 126.226 224.4 89.3831C224.4 52.54 194.533 22.6729 157.69 22.6729C120.847 22.6729 90.9795 52.54 90.9795 89.3831C90.9795 126.226 120.847 156.093 157.69 156.093Z" fill="white"/>
<path d="M797.943 726.286L727.905 530.478V221.925C727.905 197.038 707.73 176.86 682.841 176.86H602.478C577.591 176.86 557.413 197.035 557.413 221.925V334.022L595.649 320.769L647.537 227.58L616.908 346.104L512.657 382.236C496.182 387.948 486.382 405.568 491.429 422.259C495.672 436.293 508.496 445.169 522.239 445.172C525.738 445.172 529.297 444.6 532.791 443.39L654.297 401.278C664.481 397.748 672.221 389.356 674.92 378.92L708.742 248.038L705.822 379.195C705.771 381.474 705.251 385.146 704.653 387.345C699.194 407.525 684.2 423.619 664.417 430.476L565.792 464.659L556.828 557.014C556.707 558.257 556.648 559.509 556.648 560.76L556.712 738.707C556.72 760.033 574.011 777.319 595.337 777.319H595.353C616.684 777.312 633.97 760.01 633.962 738.679L633.898 562.609L644.231 456.128C644.396 454.431 645.823 453.136 647.527 453.136C649.296 453.136 650.754 454.529 650.833 456.296L654.629 539.524C654.796 543.134 655.471 546.706 656.632 550.128L724.787 751.096C730.244 767.187 745.263 777.327 761.36 777.327C765.475 777.327 769.659 776.665 773.769 775.27C793.972 768.42 804.795 746.489 797.943 726.286Z" fill="white"/>
<path d="M396.36 427.384H449.099C453.085 427.384 456.88 426.598 460.372 425.208C456.033 403.323 463.727 381.109 479.617 366.493V347.417H396.36V427.384Z" fill="white"/>
<path d="M331.993 427.384H365.461V397.421C358.418 411.038 346.576 421.804 331.993 427.384Z" fill="white"/>
<path d="M642.308 156.093C679.151 156.093 709.018 126.226 709.018 89.3831C709.018 52.54 679.151 22.6729 642.308 22.6729C605.465 22.6729 575.598 52.54 575.598 89.3831C575.598 126.226 605.465 156.093 642.308 156.093Z" fill="white"/>
<path d="M312.086 336.386L202.456 323.931L146.648 214.975L217.661 294.558L242.585 297.39V221.925C242.585 197.038 222.41 176.86 197.52 176.86H117.157C92.2696 176.86 72.092 197.035 72.092 221.925V567.777L2.92265 723.978C-5.20144 743.7 4.19727 766.278 23.9217 774.404C28.7343 776.39 33.7195 777.327 38.6197 777.327C53.8018 777.327 68.2038 768.315 74.3477 753.405L141.297 590.911C143.012 586.747 143.988 582.313 144.176 577.812L149.002 460.699C149.177 456.473 152.653 453.136 156.881 453.136C160.19 453.136 163.146 455.201 164.284 458.307L202.497 562.48L166.875 730.689C162.456 751.557 175.792 772.056 196.66 776.477C199.358 777.049 202.049 777.322 204.699 777.322C222.561 777.322 238.598 764.862 242.448 746.69L280.373 567.61C281.876 560.505 281.348 553.123 278.848 546.309L242.585 447.44V424.376L174.553 416.646C153.75 414.282 135.599 401.86 125.858 383.362C124.794 381.345 123.484 377.877 122.935 375.665L91.3993 248.321L153.029 368.638C157.945 378.232 167.333 384.729 178.045 385.944L305.821 400.462C309.496 400.879 313.093 400.66 316.507 399.893C329.918 396.883 340.488 385.419 341.559 370.798C342.829 353.407 329.411 338.356 312.086 336.386Z" fill="white"/>
<path d="M449.099 238.122H435.884C438.778 236.495 441.322 234.705 443.313 232.715C459.453 216.572 459.453 190.305 443.31 174.16C427.165 158.019 400.9 158.022 384.757 174.16C383.382 175.535 382.11 177.208 380.91 179.042C379.71 177.208 378.438 175.54 377.063 174.162C360.923 158.017 334.656 158.014 318.508 174.162C302.368 190.307 302.368 216.572 318.511 232.715C320.501 234.705 323.045 236.495 325.94 238.122H312.722C295.866 238.122 282.203 251.785 282.203 268.641V301.892L316.574 305.798C327.049 306.988 336.845 310.688 345.278 316.518H365.46V236.551H396.36V316.52H479.617V268.644C479.617 251.788 465.955 238.122 449.099 238.122ZM340.359 210.869C336.263 206.772 336.263 200.105 340.357 196.011C342.407 193.961 345.097 192.939 347.788 192.939C350.443 192.939 353.101 193.938 355.137 195.931C357.269 198.56 359.991 207.315 362.231 217.885C351.61 215.643 342.844 212.931 340.359 210.869ZM421.59 210.748C419.025 212.887 410.227 215.627 399.595 217.883C401.835 207.315 404.554 198.56 406.686 195.934C410.788 191.917 417.39 191.94 421.461 196.011C425.558 200.108 425.558 206.772 421.59 210.748Z" fill="white"/>
</svg>
